<svg xmlns="http://www.w3.org/2000/svg" xmlns:xlink="http://www.w3.org/1999/xlink" viewBox="0 0 800 800"><defs><style>.cls-1{fill:none;}.cls-2{isolation:isolate;}.cls-3{fill:#e44848;}.cls-4{clip-path:url(#clip-path);}.cls-5{fill:#f37c7d;opacity:0.1;}.cls-5,.cls-6{mix-blend-mode:screen;}.cls-6{fill:#fcdede;opacity:0.08;}.cls-7{opacity:0.3;}.cls-8{fill:#ea7467;}.cls-9{fill:#e07979;}.cls-10{fill:#e26d6d;}.cls-11{fill:#fff;}</style><clipPath id="clip-path"><path class="cls-1" d="M395.05,15.7c-150,0-308.47,216.68-308.47,422.22,0,194.24,134.81,346.38,306.76,346.38,157.41,0,320.08-129.54,320.08-346.38C713.42,244.61,540.84,15.7,395.05,15.7Z"/></clipPath></defs><title>EggToken</title><g class="cls-2"><g id="Layer_4" data-name="Layer 4"><path class="cls-3" d="M395.05,15.7c-150,0-308.47,216.68-308.47,422.22,0,194.24,134.81,346.38,306.76,346.38,157.41,0,320.08-129.54,320.08-346.38C713.42,244.61,540.84,15.7,395.05,15.7Z"/><g class="cls-4"><path class="cls-5" d="M204.59,114.74c-48.94,48.9-109.4,150.46-79.65,313.15S351.72,737.28,525.69,681.8,746.5,510.65,709.07,298.11,508.81,18.82,412.84,7.53,253.53,65.84,204.59,114.74Z"/></g><path class="cls-6" d="M268.93,129.64c-36.32,54.6-88.44,241,28.12,351.17S542.59,601.33,635.14,521.3s60.24-234.43-9.57-338S455.74,30.78,402.66,31.72,305.25,75,268.93,129.64Z"/><g id="Layer_5" data-name="Layer 5" class="cls-7"><path class="cls-8" d="M694.67,457.36c-5.91-6.37-15.76-6.72-23.79-5.72-18.25,2.29-25.53,17.8-26.94,34a11.52,11.52,0,0,0-.4,1.76c-1.4,10.73-.92,20.92,9.57,27a20.76,20.76,0,0,0,9.57,2.76l.28.07c19.82,3.91,34.12-15.34,36.21-32.83C700.16,476.1,700.79,464,694.67,457.36Z"/><path class="cls-9" d="M582.83,676c-3.25-5.91-8.43-7.88-14-7.67l-.47,0a22.29,22.29,0,0,0-9.13,1.32,7.15,7.15,0,0,0-2.71.85c-9.73,5.17-16.66,16.53-11.15,27.32,5.15,10.1,20.87,12.12,30.23,6.77C584.06,699.73,587.4,684.31,582.83,676Z"/><path class="cls-9" d="M652.08,574.46a18.93,18.93,0,0,0-5.59-4,25,25,0,0,0-4.88-2.29c-6.65-2.33-14.39-2-20,1.93a7,7,0,0,0-2.54,1.74c-7.92,8.35-9.3,21.78-1.52,30.77s21.81,10.48,31,3C657.48,598.37,660.66,583.31,652.08,574.46Z"/><path class="cls-9" d="M151.37,316.35a18.3,18.3,0,0,0-4.23-11.4c-5.45-6.16-15.41-6.1-19.8,1.22a4.19,4.19,0,0,0-.54,3.28c-1.22,4.62-.6,10,1.59,13.51,3.6,5.72,14.05,11.3,20.1,5.74C151.39,326,151.53,319.92,151.37,316.35Z"/><path class="cls-10" d="M540.26,648.56c-4.53-6.59-13.28-8.23-19.46-3a5.86,5.86,0,0,0-1.86,3.27c-4.23,5.5-4.21,13,.87,18.17s13.9,4.47,18.87-.38A14.28,14.28,0,0,0,540.26,648.56Z"/><path class="cls-10" d="M274,668.21c-9.51-12.27-29.16-19.89-44-13.65a19.09,19.09,0,0,0-7.69,1.91c-6.43,3.23-8.76,9.92-9.27,16.7-.56,7.46.32,15.62,4.78,21.86,4.15,5.81,10.48,9.71,16.75,12.9,12.63,6.45,29.25,9.87,39.75-2.29C283.69,694.79,282.49,679.17,274,668.21Z"/><path class="cls-8" d="M322.69,616.71c-9.48.55-18.49,10-18.08,19.53a5,5,0,0,0,.67,2.37,11.27,11.27,0,0,0,.31,4.19c1.36,4.79,6,6.64,10.54,7.18,9.65,1.17,19.22-4.76,21.16-14.55C339.14,626.11,332.83,616.12,322.69,616.71Z"/><path class="cls-10" d="M173.9,279.37c-1-3.45-4.41-5.52-7.28-4.72h0c-4,.14-7.54,4.89-7.13,9,.48,4.64,5.88,6.9,9.62,5.69S175.1,283.5,173.9,279.37Z"/></g><path class="cls-11" d="M279.8,644.52c-.07-.36-.12-.73-.2-1.09L246.73,488.8a125.21,125.21,0,0,1,29.43-109.59l-14.79-34.32a34.44,34.44,0,0,1,2-31.47l.22-.37a35.16,35.16,0,0,1,48.13-12.55,64,64,0,0,1,47.22-77c34.22-7.28,62.48,12.64,75.08,48.76,8.21,23.52,29.89,86,44.07,126.92a18.17,18.17,0,0,1,6.88.59l82.19,23.41a19.62,19.62,0,0,1,13.43,24,20.37,20.37,0,0,1-6.74,10.14l-59.81,47.15c-.27.24-.62.3-.9.53,10.55,32.84,23.12,71.94,37.12,116a219.93,219.93,0,0,0,70.26-161.4c0-121.8-98.74-327.78-220.54-327.78s-220.54,206-220.54,327.78A220.37,220.37,0,0,0,279.8,644.52Z"/><path class="cls-11" d="M466.75,455.47l0-.18a26.29,26.29,0,1,0-20,31.32l0-.18A26.11,26.11,0,0,0,466.75,455.47Z"/></g></g></svg>