<svg xmlns="http://www.w3.org/2000/svg" xmlns:xlink="http://www.w3.org/1999/xlink" viewBox="0 0 800 800"><defs><style>.cls-1,.cls-16{fill:none;}.cls-2{isolation:isolate;}.cls-3{fill:#b98d49;}.cls-4{clip-path:url(#clip-path);}.cls-5{fill:#d2972e;}.cls-6{fill:#d9e5e8;}.cls-7{fill:#dbbf70;}.cls-8{fill:#e9ce8b;}.cls-9{clip-path:url(#clip-path-2);}.cls-10{fill:#ffcb4a;}.cls-11{clip-path:url(#clip-path-3);}.cls-12{fill:#feec96;}.cls-13{fill:#fff;}.cls-14{fill:#e44848;}.cls-15{opacity:0.5;}.cls-16{stroke:#b7834f;stroke-linecap:round;stroke-linejoin:round;stroke-width:5px;}.cls-17{opacity:0.25;mix-blend-mode:multiply;}.cls-18{clip-path:url(#clip-path-4);}.cls-19{fill:#b78140;}</style><clipPath id="clip-path"><path class="cls-1" d="M172.13,11.17c-14.21-.3-30.23-.89-30.23-.89-11-.09-20.51,3.37-24.69,19.6s20.36,86.65,18,123.4S95.21,291.11,93,433.6c-1.45,92,15.59,167,12.59,208.57S90.17,709.7,88,735.08c-1.69,19.51,6.52,49.06,26.36,51.46s62.32,6.6,83.66-2.23a1.86,1.86,0,0,0,1-1C307.76,532.68,271.45,275.35,172.13,11.17Z"/></clipPath><clipPath id="clip-path-2"><path class="cls-1" d="M693.08,639.28c.77-31.31,12.9-124.13,9.42-213.19-5.34-136.72-58.14-262.73-55.28-321,1-20.38,10.85-53,12.26-73.34.68-9.79-7.55-18.36-17.71-18.45,0,0-99.47,5.79-228.19,4.71C282.68,16.87,146.4,9.73,146.4,9.73c-10.79-.09-19.34,8.59-18.38,18.72,2,21,29,63.57,35,86.1,28.52,92.84-12.64,199.94-14.75,342.43-1.37,92.89,4.71,181.5,2.52,209-3.29,41.24-17.66,57-20.24,78.09s8.09,46.38,35.6,46.15,182.56-4.09,254.44-6,211.31-1.87,240.7-2.5,44.22-3.09,49.22-26.22C714.54,736.82,692.32,670.59,693.08,639.28Z"/></clipPath><clipPath id="clip-path-3"><path class="cls-1" d="M672.5,4.74c-50-5-218.19-.63-270.07-.63s-263.2-15.63-302-5,15,148.79,15,148.79,250.06-21.26,300.07-18.13S675,147.27,675,147.27Z"/></clipPath><clipPath id="clip-path-4"><path class="cls-1" d="M172.13,11.17c-14.21-.3-30.23-.89-30.23-.89-11-.09-20.51,3.37-24.69,19.6s20.36,86.65,18,123.4S95.21,291.11,93,433.6c-1.45,92,15.59,167,12.59,208.57S90.17,709.7,88,735.08c-1.69,19.51,6.52,49.06,26.36,51.46s62.32,6.6,83.66-2.23a1.86,1.86,0,0,0,1-1C307.76,532.68,271.45,275.35,172.13,11.17ZM693.6,629.93c0-36.78,7.2-135.12,3.72-224.18-5.34-136.73-53-242.39-50.1-300.69,1-20.38,10.85-53,12.26-73.34.68-9.79-7.55-18.36-17.71-18.45,0,0-99.47,5.79-228.19,4.71C282.68,16.87,146.4,9.73,146.4,9.73c-10.79-.09-19.34,8.59-18.38,18.72,2,21,29,63.57,35,86.1,28.52,92.84-12.64,199.94-14.75,342.43-1.37,92.89,8.19,173.5,6,201-3.29,41.24-21.14,65-23.72,86.09s8.09,46.38,35.6,46.15,182.56-4.09,254.44-6,192.69-.88,216.59-.88,60.29,5.56,72.27-26.94S693.6,666.7,693.6,629.93Z"/></clipPath></defs><title>FeedToken</title><g class="cls-2"><g id="Layer_2" data-name="Layer 2"><path class="cls-3" d="M172.13,11.17c-14.21-.3-30.23-.89-30.23-.89-11-.09-20.51,3.37-24.69,19.6s20.36,86.65,18,123.4S95.21,291.11,93,433.6c-1.45,92,15.59,167,12.59,208.57S90.17,709.7,88,735.08c-1.69,19.51,6.52,49.06,26.36,51.46s62.32,6.6,83.66-2.23a1.86,1.86,0,0,0,1-1C307.76,532.68,271.45,275.35,172.13,11.17Z"/><g class="cls-4"><path class="cls-5" d="M672.5,4.74c-50-5-218.19-.63-270.07-.63s-263.2-15.63-302-5,15,148.79,15,148.79,250.06-21.26,300.07-18.13S675,147.27,675,147.27Z"/><path class="cls-6" d="M667.09,129.33c-50-5-205-23.09-256.88-23.09s-242.16,6.69-280.92,17.32-13.81,24.34-13.81,24.34,250.06-21.26,300.07-18.13S675,147.27,675,147.27Z"/></g><path class="cls-7" d="M693.6,629.93c0-36.78,7.2-135.12,3.72-224.18-5.34-136.73-53-242.39-50.1-300.69,1-20.38,10.85-53,12.26-73.34.68-9.79-7.55-18.36-17.71-18.45,0,0-99.47,5.79-228.19,4.71C282.68,16.87,146.4,9.73,146.4,9.73c-10.79-.09-19.34,8.59-18.38,18.72,2,21,29,63.57,35,86.1,28.52,92.84-12.64,199.94-14.75,342.43-1.37,92.89,8.19,173.5,6,201-3.29,41.24-21.14,65-23.72,86.09s8.09,46.38,35.6,46.15,182.56-4.09,254.44-6,192.69-.88,216.59-.88,60.29,5.56,72.27-26.94S693.6,666.7,693.6,629.93Z"/><path class="cls-8" d="M346.26,162.22c-56.4,7.2-90,24-95.4,66s96,166.2,169.8,215.4,128.4,197.4,181.2,198,77.4-108,81.6-168.6-3.6-272.4-73.8-296.4S346.26,162.22,346.26,162.22Z"/><g class="cls-9"><path class="cls-10" d="M672.5,4.74c-50-5-218.19-.63-270.07-.63s-263.2-15.63-302-5,15,148.79,15,148.79,250.06-21.26,300.07-18.13S675,147.27,675,147.27Z"/><g class="cls-11"><path class="cls-12" d="M391.88-3.4c-22.05,9.15-34.63,31.45-81.21,79.34-42.61,43.79-100.46,80.43-100.85,80.94-.81,1.08,223.75-2.69,223.75-2.69L541.94-12S413.93-12.54,391.88-3.4Z"/><path class="cls-12" d="M545.44,8.17c-5.65,51.9-96.28,130.42-89.29,138.49s38.46,2.69,38.46,2.69,33.08-54.59,57.55-74.49,47.87-40.34,76.37-50S707.33,2,707.33,2,551.08-43.74,545.44,8.17Z"/><path class="cls-12" d="M112.47,26.45C124.3,20.54,136.4,15.7,145,15.16s136.08,16.4,152.75,16.67,192.82,5.38,222.94-1.07,116.17-11,121.82-11.84,10.76,9.15,8.6,14.26S646.28,98,649.78,103.1,681.51,2.52,681.51,2.52,551.35-12.27,526.34-11.73s-394.24,3-394.24,3Z"/></g><path class="cls-13" d="M667.09,120.67c-50-5-212.68-18.28-264.57-18.28s-234.47,10.54-273.23,21.17-13.81,24.34-13.81,24.34,250.06-21.26,300.07-18.13S675,147.27,675,147.27Z"/></g><path class="cls-14" d="M433.14,190.81c-120.5-9.05-228.84,84.71-222.6,219C217.25,554,348.85,650.94,480.4,621.61c111.16-24.77,175.13-132.67,158.42-238.89C623,282,536.78,198.6,433.14,190.81Z"/><path class="cls-13" d="M473.08,413.73l0,.12c-8.87,2.84-18.79-2.53-22-12s1.47-19.21,10.38-21.78,18.39,2.87,21.58,12.06l0,.12C486.2,401.41,481.77,411,473.08,413.73Zm94.31,124.18c-20.06-45.46-37.66-84.72-51.38-115.34.15-.16.35-.22.5-.39L547,389.35a11.57,11.57,0,0,0,2.84-6.55c.62-6.5-3.74-12.93-9.83-14.5l-50.5-12.73a11,11,0,0,0-4.27-.23c-12.23-25.87-30.93-65.36-38-80.19-10.81-22.76-30.51-36-52.64-32.52-22.88,4.27-35.42,26.31-27.25,49.29-12.71-6.76-28.11-3.2-34.35,8.21l-.13.26c-3.69,6.59-3.51,14.75.52,21.85l13.4,23.88c-17.73,21.18-24.52,51-15.14,80.61l36.71,115c4,12.66,1.65,26.39-5.44,37.59-67-28.72-116.87-93.27-122-171.81C233.35,291.92,324.51,210,428.74,217c90.44,6.09,167,78.85,181.88,167.07C620.34,441.62,603.55,498,567.39,537.91Z"/><g class="cls-15"><path class="cls-16" d="M225.4,595.57c-.6,45.79-3.62,84.35-9,104.23S203.71,745.59,204.91,757"/><path class="cls-16" d="M265.77,620.87c-.61,38-8.44,73.51-12,86.76"/><path class="cls-16" d="M190.46,653.41c28.31-.6,92.78-1.81,104.83-1.81"/><path class="cls-16" d="M239.26,682.93c19.28,0,65.07-1.2,67.48-1.81"/><path class="cls-16" d="M532.91,188.24c62.92,2.38,62.37,2.2,100.9,14.25"/><path class="cls-16" d="M607.1,162.72c3.72,25.08,9.46,57.11,11.28,78.94"/><path class="cls-16" d="M572.68,171.62c0,7.72,3,39.77,3,39.77"/><path class="cls-16" d="M113.1,339.69c-7.21,97.69-4.44,171.51,1.11,208.7s11.1,82.7,6.11,112.12"/><path class="cls-16" d="M125.31,426.28c2.23,47.73,8.33,114.89,10.55,152.64"/><path class="cls-16" d="M101,532.85c9,.42,27.37,0,38.06-2.57"/><path class="cls-16" d="M115.93,474.69c5.13.43,19.67-1.28,23.09-1.28"/></g><g class="cls-17"><g class="cls-18"><path class="cls-19" d="M127.86,180.82c-9.6,115.8-22.8,207-15.6,261.6s54,163.8,118.2,210,163.8,84,229.2,91.8S646.08,778.06,663,782.28,631,796.74,605.11,798s-213.89-5.43-297.63,2.41-182,4.82-208.47-4.22-40.36-41.57-31.93-60.25S57.08,664.62,52.86,617s-20-206.57-18-228S88.86,178.42,127.86,180.82Z"/></g></g></g></g></svg>