<svg id="Layer_1" data-name="Layer 1" xmlns="http://www.w3.org/2000/svg" viewBox="0 0 75 75">
    <defs>
        <style>
            .cls-1 {
                fill: #df3f3e;
            }

            .cls-2 {
                fill: #fff;
            }

            .cls-25 {
                fill: #387cf4;
            }

            .cls-48 {
                fill: none;
                stroke: #387cf4;
                stroke-miterlimit: 10;
                stroke-width: 5px;
            }
        </style>
    </defs>
    <!-- kg -->
    <g transform="translate(0, -720.53)">
        <g id="Layer_5-4" data-name="Layer 5">
            <circle id="BLUE" class="cls-25" cx="37.5" cy="758.03" r="37.5" />
        </g>
        <path class="cls-2"
            d="M176.47,923.48h-6.22a7.86,7.86,0,0,0,.9-3.66,8.13,8.13,0,0,0-8.31-8.13,8.24,8.24,0,0,0-8,8.16,7.86,7.86,0,0,0,.9,3.63h-6.22a1.43,1.43,0,0,0-1.4,1.18L143,955.16a1.42,1.42,0,0,0,1.4,1.66h37.34a1.42,1.42,0,0,0,1.4-1.66l-5.22-30.5A1.43,1.43,0,0,0,176.47,923.48Zm-14.16-7.21a3.62,3.62,0,1,1-2.84,2.84A3.63,3.63,0,0,1,162.31,916.27Z"
            transform="translate(-129.4 -177.63)" />
        <path class="cls-25"
            d="M153.23,933.51h2.53v5l4.64-5h3.11l-4.7,4.89,4.9,6.63h-3.05l-3.57-4.91-1.33,1.39V945h-2.53Z"
            transform="translate(-129.4 -177.63)" />
        <path class="cls-25"
            d="M164.61,946.77l.85-1.88a5.77,5.77,0,0,0,3,.81c1.71,0,2.52-.82,2.52-2.4v-.43a3.46,3.46,0,0,1-2.88,1.43,3.87,3.87,0,0,1-3.92-4.11v0a3.88,3.88,0,0,1,3.92-4.11,3.56,3.56,0,0,1,2.84,1.31v-1.15h2.5V943a4.74,4.74,0,0,1-1.12,3.47,5.18,5.18,0,0,1-3.8,1.18A8.33,8.33,0,0,1,164.61,946.77Zm6.35-6.58v0a2.15,2.15,0,0,0-4.3,0v0a2,2,0,0,0,2.14,2A2,2,0,0,0,171,940.19Z"
            transform="translate(-129.4 -177.63)" />
        <rect class="cls-2" x="54.82" y="737.89" width="3" height="12.04" rx="0.75" />
        <path class="cls-2"
            d="M182,920.13l3.16-3.16a.8.8,0,0,1,1.13,0l3.16,3.16a.8.8,0,0,0,1.37-.57v-2a.82.82,0,0,0-.24-.57l-4.29-4.29a.8.8,0,0,0-1.13,0l-4.29,4.29a.81.81,0,0,0-.23.57v2A.79.79,0,0,0,182,920.13Z"
            transform="translate(-129.4 -177.63)" />

    </g>
</svg>