<svg id="Layer_1" data-name="Layer 1" xmlns="http://www.w3.org/2000/svg" viewBox="0 0 75 75">
    <defs>
        <style>
            .cls-1 {
                fill: #df3f3e;
            }

            .cls-2 {
                fill: #fff;
            }

            .cls-25 {
                fill: #387cf4;
            }

            .cls-48 {
                fill: none;
                stroke: #387cf4;
                stroke-miterlimit: 10;
                stroke-width: 5px;
            }
        </style>
    </defs>
    <!-- worm -->
    <g transform="translate(0, -180.27)">
        <g id="Layer_5-3" data-name="Layer 5">
            <circle id="RED-3" data-name="RED" class="cls-1" cx="37.5" cy="217.77" r="37.5" />
        </g>
        <g id="Layer_1_copy-2" data-name="Layer 1 copy">
            <g id="Feed">
                <path class="cls-2"
                    d="M187.41,376.13a1.49,1.49,0,0,0,1.22-1.72,1.48,1.48,0,0,0-1.71-1.22,7.89,7.89,0,0,0-5.12,3.5,8.74,8.74,0,0,0-.84,1.53,8.56,8.56,0,0,0-4,.33s0-.07,0-.11a9.93,9.93,0,0,0-1-1.75,7.89,7.89,0,0,0-5.12-3.5,1.47,1.47,0,0,0-1.71,1.19v0a1.49,1.49,0,0,0,1.22,1.72,5,5,0,0,1,3.17,2.27,7.19,7.19,0,0,1,.66,1.22,1,1,0,0,0,.17.28,8.85,8.85,0,0,0,.22,14.34c0,.05,0,.09,0,.14v11a.92.92,0,0,1-.45.86,1.13,1.13,0,0,1-1.07,0,1.35,1.35,0,0,1-.49-1.22,10.76,10.76,0,0,0-10.65-10.86h-.07l-.84,0h-.07a10.78,10.78,0,0,0-10.76,10.8c0,2.17-1.65,1.2-3.07,1.43a4.89,4.89,0,0,0-4.89,4.89c0,.14,0,.33,0,.51a.78.78,0,0,0,0,.14,4.21,4.21,0,0,0,4.2,4.21h.22c.15,0,.31,0,.47,0h2.05c5.28,0,10.25-3.5,10.69-8.81.27-3.35.7-3.33,1.45-3.3s1.36,0,1.34,2.77c.05,5.65,4.2,9.3,10.61,9.32h0l.45,0a8.89,8.89,0,0,0,1.15-.08h0c6.09-.46,9.59-3.64,9.59-8.69V394.45a8.85,8.85,0,0,0-.66-15.3,6.93,6.93,0,0,1,.43-.75A5,5,0,0,1,187.41,376.13Zm-5.93,31.23c0,3.44-2.3,5.37-6.72,5.71h-.17c-.45,0-.91.05-1.41.05-1.77,0-7.55-.48-7.6-6.34,0-1.4,0-5.67-4.23-5.75-3.67-.19-4.27,2.9-4.52,6-.56,7-9.9,6-10.05,6a1.91,1.91,0,0,1-1.6-1.64.65.65,0,0,1,0-.24,1.84,1.84,0,0,1,.56-1.35,1.9,1.9,0,0,1,1.35-.56c.54-.12,6.05,1,6.05-4.41a7.8,7.8,0,0,1,7.76-7.81h.05l.84,0a7.76,7.76,0,0,1,7.77,7.78V405a4.21,4.21,0,0,0,2,3.82,4.12,4.12,0,0,0,4,0,3.87,3.87,0,0,0,1.94-3.45v-9.76a8.73,8.73,0,0,0,4,.1v11.68ZM185.57,387a5.9,5.9,0,1,1-5.9-5.9,5.9,5.9,0,0,1,5.9,5.9Z"
                    transform="translate(-129.4 -177.63)" />
            </g>
        </g>
    </g>

</svg>