<svg id="Layer_1" data-name="Layer 1" xmlns="http://www.w3.org/2000/svg" viewBox="0 0 75 75">
    <defs>
        <style>
            .cls-1 {
                fill: #df3f3e;
            }

            .cls-2 {
                fill: #fff;
            }

            .cls-25 {
                fill: #387cf4;
            }

            .cls-48 {
                fill: none;
                stroke: #387cf4;
                stroke-miterlimit: 10;
                stroke-width: 5px;
            }
        </style>
    </defs>
    <!-- chicken -->
    <g id="Layer_5" data-name="Layer 5">
        <circle id="RED" class="cls-1" cx="37.5" cy="37.5" r="37.5" />
    </g>
    <g id="Layer_1_copy" data-name="Layer 1 copy">
        <g id="Chicken">
            <path class="cls-2"
                d="M185.57,198.6l-1.18-9.35c-.26-2.05-1.53-3.41-3.41-3.41a3.46,3.46,0,0,0-3.37,3.54,1.91,1.91,0,0,0-2.7.13,2,2,0,0,0-.46,1.65l1,5,4,.53,0-.25Z"
                transform="translate(-129.4 -177.63)" />
            <path class="cls-2"
                d="M184.5,201.64l-.39-4a1.06,1.06,0,0,1,.95-1.15,1,1,0,0,1,.59.12l4.08,2.16a1.06,1.06,0,0,1,0,1.88L186,202.48a1,1,0,0,1-1.41-.47A1.2,1.2,0,0,1,184.5,201.64Z"
                transform="translate(-129.4 -177.63)" />
            <path class="cls-2"
                d="M187.65,220.12c-.84-9.72-1.71-17.67-2.08-21.52-.41-4.17-3.26-7-7.25-6.74a6.77,6.77,0,0,0-6.26,6.79v8.54a2.89,2.89,0,0,1-2.89,2.89H138.33a2.89,2.89,0,0,0-2.74,3.82,11.48,11.48,0,0,0,9.66,7.6,1.28,1.28,0,0,1,1.17,1.27v0c0,10.54,10.66,12.92,19.75,12.92C179.19,235.71,188.4,228.82,187.65,220.12Zm-5-19.37a1.41,1.41,0,1,1,1.41-1.41h0a1.41,1.41,0,0,1-1.41,1.41Z"
                transform="translate(-129.4 -177.63)" />
            <path class="cls-2"
                d="M159.93,244.18a2.23,2.23,0,0,1-1.4-.49,2.27,2.27,0,0,1-.36-3.17l5.37-6.72a4.29,4.29,0,0,1,6-.68,4.37,4.37,0,0,1,.68.68l5.36,6.72a2.25,2.25,0,1,1-3.51,2.81l-5.21-6.52-5.2,6.52A2.23,2.23,0,0,1,159.93,244.18Z"
                transform="translate(-129.4 -177.63)" />
        </g>
    </g>

</svg>