<svg id="Layer_1" data-name="Layer 1" xmlns="http://www.w3.org/2000/svg" viewBox="0 0 75 75">
    <defs>
        <style>
            .cls-1 {
                fill: #df3f3e;
            }

            .cls-2 {
                fill: #fff;
            }

            .cls-25 {
                fill: #387cf4;
            }

            .cls-48 {
                fill: none;
                stroke: #387cf4;
                stroke-miterlimit: 10;
                stroke-width: 5px;
            }
        </style>
    </defs>
    <!-- pitchfork -->
    <g transform="translate(0, -540.96)">

        <g id="Layer_5-6" data-name="Layer 5">
            <circle id="BLUE-2" data-name="BLUE" class="cls-25" cx="37.5" cy="578.46" r="37.5" />
        </g>
        <path class="cls-2"
            d="M191.54,743.25l-11.36-11.36a2.15,2.15,0,0,0-1.51-.63h0a2.11,2.11,0,0,0-1.51.63l-.81.81A10.17,10.17,0,0,0,175,745.38l-15,15-2.56-2.56a6.74,6.74,0,0,0-9.51,0l-6.49,6.49A2.13,2.13,0,0,0,143,768h0a2.09,2.09,0,0,0,1.51-.63l6.49-6.49a2.46,2.46,0,0,1,3.48,0l.12.12-8.23,8.23a2.13,2.13,0,1,0,3,3l8.23-8.24,1.86,1.86-8.23,8.24a2.13,2.13,0,0,0,3,3l8.23-8.23.12.11a2.46,2.46,0,0,1,0,3.48l-6.5,6.5a2.13,2.13,0,0,0,3,3l6.5-6.5a6.74,6.74,0,0,0,0-9.51h0L163,763.43l15-15a10.17,10.17,0,0,0,12.68-1.32l.81-.81A2.14,2.14,0,0,0,191.54,743.25ZM187,744.7a5.89,5.89,0,0,1-7.6-.63,5.93,5.93,0,0,1-.63-7.6Z"
            transform="translate(-129.4 -177.63)" />
    </g>
</svg>