<?xml version="1.0" encoding="utf-8"?>
<!-- Generator: Adobe Illustrator 24.0.2, SVG Export Plug-In . SVG Version: 6.00 Build 0)  -->
<svg version="1.1" id="Layer_2" xmlns="http://www.w3.org/2000/svg" xmlns:xlink="http://www.w3.org/1999/xlink"
	viewBox="47 347 1107 400" xml:space="preserve">
	<style type="text/css">
		.st0 {
			fill: #DF3F3E;
		}
	</style>
	<g>
		<path class="st0" d="M285.47,527.55c-13.04-25.14-41.09-45.17-75.55-45.17c-54.02,0-94.99,43.3-94.99,101.97
		c0,58.67,40.98,101.97,94.99,101.97c34.46,0,62.4-19.56,75.44-45.17l49.8,38.69C311.91,714.26,273.82,745,209.92,745
		c-90.8,0-162.97-65.19-162.97-160.65s72.17-160.65,162.97-160.65c30.62,0,55.52,6.97,75.55,18.01V527.55z" />
	</g>
	<circle class="st0" cx="253.3" cy="380.51" r="32.16" />
	<circle class="st0" cx="208.75" cy="407.33" r="24.08" />
	<circle class="st0" cx="243.75" cy="557.5" r="27.4" />
	<polygon class="st0" points="285.47,493.14 184.63,442.04 184.63,406.37 285.47,378.88 " />
	<polygon class="st0" points="285.39,527.61 352.1,527.61 285.39,587.94 " />
	<g>
		<path class="st0" d="M524.77,599.29c0-31.73-16.57-41.67-42.62-41.67c-23.2,0-41.67,13.26-52.09,26.99V738.5h-60.14V422.67h60.14
		v116.96c14.68-17.52,43.09-35.51,80.5-35.51c50.19,0,74.34,27.46,74.34,71.97V738.5h-60.14V599.29z" />
		<path class="st0"
			d="M605.87,440.19c0-19.89,16.57-35.99,35.99-35.99c19.89,0,35.99,16.1,35.99,35.99
		c0,19.89-16.1,35.99-35.99,35.99C622.45,476.17,605.87,460.07,605.87,440.19z M612.03,509.79h60.14V738.5h-60.14V509.79z" />
		<path class="st0" d="M785.33,650.42l-27.46,29.36v58.71h-60.14V422.67h60.14V611.6l86.65-101.81h73.87l-90.44,103.7l93.28,125.01
		h-75.29L785.33,650.42z" />
		<path class="st0" d="M1092.41,600.23c0-31.72-16.57-42.62-42.14-42.62c-23.67,0-42.14,13.26-52.09,26.99V738.5h-60.14V509.79h60.14
		v29.83c14.68-17.52,42.62-35.51,80.02-35.51c50.19,0,74.34,28.41,74.34,72.92V738.5h-60.14V600.23z" />
	</g>
</svg>